<?xml version="1.0" encoding="utf-8"?>
<!-- Generator: Adobe Illustrator 24.3.0, SVG Export Plug-In . SVG Version: 6.00 Build 0)  -->
<svg version="1.1" xmlns="http://www.w3.org/2000/svg" xmlns:xlink="http://www.w3.org/1999/xlink" x="0px" y="0px"
	 viewBox="0 0 595.28 466.13" style="enable-background:new 0 0 595.28 466.13;" xml:space="preserve">
<style type="text/css">
	.st0{display:none;}
	.st1{display:inline;}
	.st2{fill:#ACCFC9;}
</style>
<g id="Layer_1" class="st0">
	<g class="st1">
		<path class="st2" d="M262.36,327.6v-3.92l-5.42,5.7l-6.74-1.62l-0.04-0.47c-0.15-1.66-0.18-3.36-0.08-5.04
			c0.09-1.66,0.25-3.28,0.47-4.84l0.05-0.38l11.75-4.68v-2.9l0.69-1.2l-6.77-1.65l-0.76,4.66l-5.19-0.89l1.36-5.11l7.71-3.27
			l8.7,2.03v19.84l3.05,1l-3.11,4.64L262.36,327.6z M257.34,324.37l5.02-5.22v-3.26l-6.74,2.63c-0.14,0.94-0.23,1.87-0.26,2.77
			c-0.03,0.86-0.02,1.73,0.02,2.58L257.34,324.37z"/>
		<polygon class="st2" points="275.48,328.76 275.48,306.28 272.49,306.28 272.93,302.84 275.48,302.84 275.48,296.95 281.02,288.5 
			290.33,290.19 288.25,295.48 281.16,294.26 281.16,302.84 286.89,302.84 286.45,306.28 281.16,306.28 281.16,328.76 		"/>
		<polygon class="st2" points="292.28,327.42 292.28,306.45 289.41,306.45 289.84,302.84 292.54,302.84 294.13,296.88 
			297.97,296.88 297.97,302.84 303.74,302.84 303.31,306.45 297.97,306.45 297.97,323.27 304.37,324.86 301.03,329.5 		"/>
		<path class="st2" d="M307.39,327.72l-0.09-0.49c-0.22-1.26-0.41-2.63-0.55-4.07c-0.15-1.44-0.25-2.94-0.3-4.45
			c-0.06-1.52-0.07-3.04-0.03-4.53c0.04-1.51,0.15-2.95,0.33-4.29l0.02-0.18l6.28-7.91l10.21,2.4v7.47l-10.97,8.08
			c0.04,0.53,0.08,1.09,0.14,1.67c0.06,0.57,0.14,1.15,0.27,1.73l10.9,1.04l-3.24,4.85L307.39,327.72z M312.91,307.24
			c-0.44,1.87-0.7,3.65-0.78,5.29c-0.06,1.33-0.09,2.56-0.07,3.66l5.68-4.16v-3.63L312.91,307.24z"/>
		<polygon class="st2" points="328.98,328.76 328.98,307.53 325.92,306.53 329.04,301.89 334.66,303.79 334.66,307.87 338.93,302.1 
			345.03,303.54 342.39,308.81 338.63,307.75 334.66,312.91 334.66,328.76 		"/>
	</g>
	<g class="st1">
		<path class="st2" d="M198.15,114.83c9.01,0.6,17.47,1.18,25.94,1.72c4.54,0.29,5.66,1.88,4.11,6.19
			c-4.44,12.37-2.52,10.19-13.88,9.52c-7.63-0.45-15.26-0.85-22.86-1.6c-1.69-0.17-3.66-1.31-4.8-2.61
			c-3.96-4.51-5.45-9.74-5.35-15.95c0.34-21.09,0.06-42.2,0.21-63.3c0.02-2.95-0.95-4.01-3.67-4.64c-7.65-1.78-7.78-2.2-3.48-8.64
			c5.44-8.16,3.48-7.06,12.14-5.05c2.04,0.47,4.07,0.97,6.1,1.47c5.28,1.29,5.53,1.58,5.53,6.93c0.01,23.69,0,47.38,0.01,71.07
			C198.15,111.43,198.15,112.9,198.15,114.83z"/>
		<path class="st2" d="M396,182.73c0,7.14,0,13.98,0,21.29c3.37,0,6.67,0.09,9.96-0.03c2.69-0.1,4.3,0.9,4.43,3.69
			c0.2,4.36-1.26,6.65-4.37,6.85c-1.72,0.11-3.46,0.03-5.18,0.03c-1.57,0-3.14,0-5.1,0c0,1.76,0,3.09,0,4.42
			c0,16.17,0.01,32.34-0.01,48.51c0,6.36-0.66,7-6.92,7c-9.24,0-9.91,1.34-9.82-9.99c0.12-15.18,0.03-30.37,0.03-45.55
			c0-1.33,0-2.66,0-3.83c-2.86-1.48-7.84,1.32-7.57-4.52c0.26-5.65,0.78-6.17,7.57-6.89c0-3.59-0.26-7.27,0.09-10.89
			c0.24-2.48,0.88-5.14,2.14-7.24c3.47-5.82,7.41-11.36,11.04-17.09c1.24-1.96,2.72-2.63,4.95-2.2c6.17,1.2,12.33,2.41,18.53,3.44
			c3.27,0.54,3.74,2.3,2.77,5.01c-0.08,0.23-0.2,0.45-0.29,0.68c-4.84,12.32-2.64,10.41-15.11,8.56
			C400.85,183.63,398.58,183.18,396,182.73z"/>
		<path class="st2" d="M497.48,290.87c-0.53,13.07-1.86,12.16-8,16.07c-6.65,4.23-12.69,9.41-19.16,13.93
			c-3.43,2.4-1.3,5.38-1.17,8.04c0.03,0.69,2.53,1.64,3.97,1.82c6.49,0.8,13.01,1.28,19.51,2.04c4.61,0.54,5.3,2.13,2.62,6.04
			c-6.97,10.16-3.67,8.86-15.75,7.67c-7.12-0.7-14.22-1.66-21.36-2.13c-3.18-0.21-4.62-1.84-4.81-4.49
			c-0.82-11.3-1.44-22.62-2.11-33.94c-0.45-7.59,2.32-13.83,7.57-19.28c3.15-3.28,5.73-7.11,8.58-10.68
			c1.32-1.65,2.74-2.39,5.11-1.76c6.78,1.81,13.63,3.39,20.51,4.79c3.3,0.67,4.59,2.4,4.49,5.58
			C497.43,286.67,497.48,288.77,497.48,290.87z M467.7,309.61c0.34,0.1,0.69,0.2,1.03,0.31c2.37-1.73,4.56-3.86,7.16-5.12
			c5.47-2.67,6.16-6.96,4.88-12.44c-3.47-0.79-7.08-1.61-11.27-2.56C468.86,296.82,468.28,303.22,467.7,309.61z"/>
		<path class="st2" d="M289.77,147.08c-1.37-0.5-2.62-0.96-3.86-1.42c-3.12-1.18-3.64-2.68-1.92-5.61c0.12-0.21,0.27-0.42,0.42-0.61
			c2.23-2.71,4.42-7.61,6.72-7.67c4.49-0.12,9.13,2.26,13.5,4.11c1,0.42,1.56,2.9,1.58,4.44c0.11,15.16,0.12,30.33,0.02,45.49
			c-0.02,2.55,0.52,3.95,3.21,4.69c3.95,1.09,4.54,2.92,2.28,6.2c-6.6,9.58-4.23,9.47-15.57,5.68c-6.37-2.13-6.37-2.1-6.37-8.97
			C289.77,178.02,289.77,162.62,289.77,147.08z"/>
		<path class="st2" d="M306.71,112.03c0,0.37,0,0.74,0,1.11c-0.03,7.92-1.33,9.14-9.01,8.41c-7.86-0.74-7.86-0.74-7.85-8.5
			c0-1.23-0.1-2.48,0.06-3.7c0.67-5.2,2.32-6.45,7.52-5.84c0.49,0.06,0.98,0.08,1.47,0.13
			C306.55,104.35,306.71,104.52,306.71,112.03z"/>
		<path class="st2" d="M396.91,114.83c-9.01,0.6-17.47,1.18-25.94,1.72c-4.54,0.29-5.66,1.88-4.11,6.19
			c4.44,12.37,2.52,10.19,13.88,9.52c7.63-0.45,15.26-0.85,22.86-1.6c1.69-0.17,3.66-1.31,4.8-2.61c3.96-4.51,5.45-9.74,5.35-15.95
			c-0.34-21.09-0.06-42.2-0.21-63.3c-0.02-2.95,0.95-4.01,3.67-4.64c7.65-1.78,7.78-2.2,3.48-8.64c-5.44-8.16-3.48-7.06-12.14-5.05
			c-2.04,0.47-4.07,0.97-6.1,1.47c-5.28,1.29-5.53,1.58-5.53,6.93c-0.01,23.69,0,47.38-0.01,71.07
			C396.91,111.43,396.91,112.9,396.91,114.83z"/>
		<path class="st2" d="M199.06,182.73c0,7.14,0,13.98,0,21.29c-3.37,0-6.67,0.09-9.96-0.03c-2.69-0.1-4.3,0.9-4.43,3.69
			c-0.2,4.36,1.26,6.65,4.37,6.85c1.72,0.11,3.46,0.03,5.18,0.03c1.57,0,3.14,0,5.1,0c0,1.76,0,3.09,0,4.42
			c0,16.17-0.01,32.34,0.01,48.51c0,6.36,0.66,7,6.92,7c9.24,0,9.91,1.34,9.82-9.99c-0.12-15.18-0.03-30.37-0.03-45.55
			c0-1.33,0-2.66,0-3.83c2.86-1.48,7.84,1.32,7.57-4.52c-0.26-5.65-0.78-6.17-7.57-6.89c0-3.59,0.26-7.27-0.09-10.89
			c-0.24-2.48-0.88-5.14-2.14-7.24c-3.47-5.82-7.41-11.36-11.04-17.09c-1.24-1.96-2.72-2.63-4.95-2.2
			c-6.17,1.2-12.33,2.41-18.53,3.44c-3.27,0.54-3.74,2.3-2.77,5.01c0.08,0.23,0.2,0.45,0.29,0.68c4.84,12.32,2.64,10.41,15.11,8.56
			C194.21,183.63,196.48,183.18,199.06,182.73z"/>
		<path class="st2" d="M97.56,284.57c-0.1-3.18,1.2-4.92,4.49-5.58c6.88-1.39,13.73-2.98,20.51-4.79c2.38-0.63,3.79,0.1,5.11,1.76
			c2.85,3.57,5.43,7.4,8.58,10.68c5.25,5.45,8.02,11.69,7.57,19.28c-0.68,11.32-1.29,22.63-2.11,33.94
			c-0.19,2.65-1.63,4.28-4.81,4.49c-7.13,0.47-14.24,1.42-21.36,2.13c-12.07,1.19-8.78,2.5-15.75-7.67c-2.68-3.9-1.99-5.5,2.62-6.04
			c6.49-0.76,13.02-1.24,19.51-2.04c1.44-0.18,3.94-1.13,3.97-1.82c0.13-2.66,2.26-5.64-1.17-8.04c-6.48-4.52-12.51-9.7-19.16-13.93
			c-6.14-3.91-7.47-3-8-16.07C97.58,288.77,97.63,286.67,97.56,284.57z M125.56,289.79c-4.2,0.95-7.8,1.77-11.27,2.56
			c-1.28,5.48-0.59,9.77,4.88,12.44c2.6,1.27,4.79,3.39,7.16,5.12c0.34-0.1,0.69-0.2,1.03-0.31
			C126.78,303.22,126.2,296.82,125.56,289.79z"/>
	</g>
	<g class="st1">
		<path class="st2" d="M146.91,465.14v12.99h-3.95v-12.99h-4.62v-3.38h13.2v3.38H146.91z"/>
		<path class="st2" d="M168.97,478.13v-6.84h-6.38v6.84h-3.95v-16.37h3.95v6.2h6.38v-6.2h3.95v16.37H168.97z"/>
		<path class="st2" d="M181.59,478.13v-16.37h11.01v3.33h-7.19v3.1h6.8v3.17h-6.8v3.4h7.61v3.38H181.59z"/>
		<path class="st2" d="M223.72,477.84c-1.06,0.49-2.29,0.73-3.68,0.73c-1.26,0-2.43-0.21-3.5-0.62c-1.07-0.42-2-1.01-2.79-1.77
			c-0.79-0.76-1.4-1.68-1.85-2.74c-0.45-1.06-0.67-2.23-0.67-3.51c0-1.31,0.23-2.5,0.68-3.56c0.45-1.06,1.08-1.97,1.88-2.72
			c0.8-0.75,1.74-1.32,2.82-1.72c1.08-0.4,2.24-0.6,3.49-0.6c1.16,0,2.29,0.2,3.41,0.61c1.12,0.41,2.02,1.01,2.72,1.79l-2.68,2.68
			c-0.37-0.51-0.86-0.89-1.46-1.13c-0.6-0.25-1.22-0.37-1.85-0.37c-0.69,0-1.33,0.13-1.91,0.38c-0.58,0.25-1.08,0.61-1.49,1.05
			c-0.42,0.45-0.74,0.97-0.97,1.58c-0.23,0.61-0.35,1.28-0.35,2c0,0.74,0.12,1.42,0.35,2.03c0.23,0.62,0.55,1.14,0.96,1.58
			c0.41,0.44,0.9,0.78,1.47,1.03c0.57,0.25,1.19,0.37,1.87,0.37c0.79,0,1.47-0.15,2.06-0.46c0.59-0.31,1.06-0.71,1.41-1.2l2.75,2.59
			C225.68,476.7,224.78,477.35,223.72,477.84z"/>
		<path class="st2" d="M243.72,478.13v-6.84h-6.38v6.84h-3.95v-16.37h3.95v6.2h6.38v-6.2h3.95v16.37H243.72z"/>
		<path class="st2" d="M267.44,478.13l-1.27-3.21h-6.34l-1.2,3.21h-4.3l6.87-16.37h3.84l6.8,16.37H267.44z M263.05,466.13
			l-2.08,5.62h4.12L263.05,466.13z"/>
		<path class="st2" d="M278.49,478.13v-16.37h3.98v12.92h6.34v3.44H278.49z"/>
		<path class="st2" d="M295.94,478.13v-16.37h3.98v16.37H295.94z"/>
		<path class="st2" d="M320.31,477.84c-1.06,0.49-2.29,0.73-3.68,0.73c-1.26,0-2.43-0.21-3.5-0.62c-1.07-0.42-2-1.01-2.79-1.77
			s-1.4-1.68-1.85-2.74c-0.45-1.06-0.67-2.23-0.67-3.51c0-1.31,0.23-2.5,0.68-3.56c0.45-1.06,1.08-1.97,1.88-2.72
			c0.8-0.75,1.74-1.32,2.82-1.72c1.08-0.4,2.24-0.6,3.49-0.6c1.16,0,2.29,0.2,3.41,0.61c1.12,0.41,2.02,1.01,2.72,1.79l-2.68,2.68
			c-0.37-0.51-0.86-0.89-1.46-1.13c-0.6-0.25-1.22-0.37-1.85-0.37c-0.69,0-1.33,0.13-1.91,0.38c-0.58,0.25-1.08,0.61-1.49,1.05
			c-0.42,0.45-0.74,0.97-0.97,1.58c-0.23,0.61-0.35,1.28-0.35,2c0,0.74,0.12,1.42,0.35,2.03c0.23,0.62,0.55,1.14,0.96,1.58
			c0.41,0.44,0.9,0.78,1.47,1.03c0.57,0.25,1.19,0.37,1.87,0.37c0.79,0,1.47-0.15,2.06-0.46c0.59-0.31,1.06-0.71,1.41-1.2l2.75,2.59
			C322.27,476.7,321.38,477.35,320.31,477.84z"/>
		<path class="st2" d="M329.98,478.13v-16.37h11.01v3.33h-7.19v3.1h6.8v3.17h-6.8v3.4h7.61v3.38H329.98z"/>
		<path class="st2" d="M369.03,466.01c-0.34-0.43-0.78-0.77-1.33-1.03c-0.55-0.25-1.08-0.38-1.58-0.38c-0.26,0-0.53,0.02-0.8,0.07
			c-0.27,0.05-0.51,0.14-0.73,0.27c-0.22,0.13-0.4,0.3-0.54,0.51c-0.15,0.21-0.22,0.47-0.22,0.8c0,0.28,0.06,0.51,0.17,0.69
			c0.12,0.18,0.28,0.35,0.51,0.49c0.22,0.14,0.49,0.27,0.8,0.38c0.31,0.12,0.66,0.24,1.04,0.36c0.56,0.18,1.13,0.39,1.73,0.61
			c0.6,0.22,1.15,0.52,1.64,0.89c0.49,0.37,0.9,0.83,1.23,1.38c0.32,0.55,0.49,1.23,0.49,2.05c0,0.94-0.17,1.75-0.52,2.44
			c-0.35,0.69-0.81,1.25-1.4,1.7c-0.59,0.45-1.26,0.78-2.01,0.99c-0.76,0.22-1.53,0.32-2.34,0.32c-1.17,0-2.3-0.2-3.4-0.61
			c-1.09-0.41-2-0.99-2.73-1.75l2.59-2.64c0.4,0.49,0.93,0.91,1.58,1.24c0.65,0.33,1.31,0.5,1.95,0.5c0.29,0,0.58-0.03,0.86-0.09
			c0.28-0.06,0.52-0.16,0.73-0.3c0.21-0.14,0.37-0.32,0.5-0.55c0.12-0.23,0.18-0.51,0.18-0.83c0-0.31-0.08-0.57-0.23-0.79
			c-0.15-0.22-0.37-0.41-0.66-0.59c-0.29-0.18-0.64-0.34-1.06-0.49c-0.42-0.15-0.91-0.3-1.45-0.47c-0.52-0.17-1.04-0.37-1.54-0.6
			c-0.5-0.23-0.95-0.53-1.34-0.89c-0.39-0.36-0.71-0.8-0.95-1.32c-0.24-0.52-0.36-1.14-0.36-1.88c0-0.91,0.18-1.69,0.55-2.34
			c0.37-0.65,0.86-1.18,1.46-1.6c0.6-0.42,1.28-0.72,2.03-0.91c0.75-0.19,1.52-0.29,2.29-0.29c0.92,0,1.87,0.17,2.83,0.51
			c0.96,0.34,1.81,0.84,2.53,1.5L369.03,466.01z"/>
		<path class="st2" d="M386.04,465.14v12.99h-3.95v-12.99h-4.62v-3.38h13.2v3.38H386.04z"/>
		<path class="st2" d="M411.14,474.65c-0.33,0.81-0.81,1.5-1.42,2.08c-0.62,0.58-1.36,1.03-2.23,1.35s-1.84,0.49-2.9,0.49
			c-1.08,0-2.05-0.16-2.91-0.49c-0.86-0.32-1.6-0.77-2.2-1.35c-0.6-0.58-1.06-1.27-1.39-2.08c-0.32-0.81-0.49-1.71-0.49-2.69v-10.2
			h3.93v9.87c0,0.45,0.06,0.87,0.17,1.27c0.12,0.4,0.29,0.76,0.53,1.08c0.24,0.32,0.55,0.57,0.95,0.75
			c0.39,0.18,0.87,0.28,1.42,0.28s1.03-0.09,1.42-0.28c0.39-0.18,0.71-0.44,0.96-0.75c0.25-0.32,0.42-0.67,0.53-1.08
			c0.11-0.4,0.16-0.82,0.16-1.27v-9.87h3.95v10.2C411.64,472.94,411.47,473.84,411.14,474.65z"/>
		<path class="st2" d="M435.4,469.9c0,1.43-0.27,2.67-0.8,3.71c-0.53,1.04-1.23,1.9-2.1,2.57c-0.87,0.67-1.85,1.16-2.95,1.48
			c-1.09,0.32-2.2,0.47-3.33,0.47h-6.1v-16.37h5.92c1.16,0,2.3,0.13,3.42,0.4c1.13,0.27,2.13,0.72,3.01,1.34
			c0.88,0.62,1.59,1.46,2.13,2.51C435.13,467.06,435.4,468.36,435.4,469.9z M431.29,469.9c0-0.92-0.15-1.69-0.45-2.3
			c-0.3-0.61-0.7-1.09-1.2-1.46c-0.5-0.36-1.07-0.62-1.71-0.77c-0.64-0.15-1.3-0.23-1.98-0.23h-1.97v9.57h1.87
			c0.71,0,1.39-0.08,2.05-0.24c0.66-0.16,1.23-0.43,1.73-0.8c0.5-0.37,0.9-0.86,1.2-1.48C431.14,471.57,431.29,470.81,431.29,469.9z
			"/>
		<path class="st2" d="M450.43,471.19v6.94h-3.95v-6.94l-6.15-9.43h4.79l3.49,6.06l3.49-6.06h4.62L450.43,471.19z"/>
	</g>
	<g class="st1">
		<path class="st2" d="M231.09,391.44c5.07,3.29,7.79,8.35,7.79,13.7c0,11.92-10.14,20.65-21.96,20.65h-32.75v-65.69h32.28
			c11.17,0,20.46,8.63,20.46,20.08C236.9,384.49,234.56,389.47,231.09,391.44z M205.47,385.71h5.63c2.06,0,3.66-1.6,3.66-3.66
			c0-2.06-1.6-3.66-3.66-3.66h-5.63V385.71z M211.76,406.83c2.63,0,4.79-2.16,4.79-4.79s-2.16-4.79-4.79-4.79h-6.29v9.57H211.76z"/>
		<path class="st2" d="M295.75,427.1c-19.05,0-34.91-14.73-34.91-34.07c0-19.33,15.86-34.06,34.91-34.06
			c19.05,0,34.91,14.73,34.91,34.06C330.65,412.36,314.8,427.1,295.75,427.1z M295.75,404.39c6.47,0,11.17-4.88,11.17-11.36
			c0-6.47-4.69-11.36-11.17-11.36c-6.48,0-11.17,4.88-11.17,11.36C284.58,399.51,289.27,404.39,295.75,404.39z"/>
		<path class="st2" d="M403.1,391.44c5.07,3.29,7.79,8.35,7.79,13.7c0,11.92-10.14,20.65-21.96,20.65h-32.75v-65.69h32.28
			c11.17,0,20.46,8.63,20.46,20.08C408.92,384.49,406.57,389.47,403.1,391.44z M377.48,385.71h5.63c2.06,0,3.66-1.6,3.66-3.66
			c0-2.06-1.6-3.66-3.66-3.66h-5.63V385.71z M383.77,406.83c2.63,0,4.79-2.16,4.79-4.79s-2.16-4.79-4.79-4.79h-6.29v9.57H383.77z"/>
	</g>
</g>
<g id="Layer_2">
	<path d="M201.58,114.88c9.01,0.6,17.86,2.88,26.03,3.23c4.38,0.19,5.57,4.18,4.02,8.12c-4.44,11.29-2.52,6.76-13.88,6.1
		c-7.63-0.45-15.26-0.85-22.86-1.6c-1.69-0.17-3.66-1.31-4.8-2.61c-3.96-4.51-5.45-9.74-5.35-15.95
		c0.11-10.02-2.17-14.99-5.08-24.11c-4.78-14.98-0.32-21.75,5.3-39.18c0.02-2.95-0.95-4.01-3.67-4.64c-7.65-1.78-7.78-2.2-3.48-8.64
		c5.44-8.16,3.48-7.06,12.14-5.05c2.04,0.47,4.07,0.97,6.1,1.47c5.28,1.29,5.56,1.61,5.53,6.93c-0.1,14.95-11.13,31.57-7.48,46.25
		c2.57,10.34,7.49,11.91,7.49,24.82C201.58,111.48,201.58,112.95,201.58,114.88z M396.32,112.44c-9.01,0.6-17.86,2.88-26.03,3.23
		c-4.38,0.19-5.57,4.18-4.02,8.12c4.44,11.29,2.52,6.76,13.88,6.1c7.63-0.45,15.26-0.85,22.86-1.6c1.69-0.17,3.66-1.31,4.8-2.61
		c3.96-4.51,5.45-9.74,5.35-15.95c-0.11-10.02,2.17-14.99,5.08-24.11c4.78-14.98,0.32-21.75-5.3-39.18
		c-0.02-2.95,0.95-4.01,3.67-4.64c7.65-1.78,7.78-2.2,3.48-8.64c-5.44-8.16-3.48-7.06-12.14-5.05c-2.04,0.47-4.07,0.97-6.1,1.47
		c-5.28,1.29-5.56,1.61-5.53,6.93c0.1,14.95,11.13,31.57,7.48,46.25c-2.57,10.34-7.49,11.91-7.49,24.82
		C396.32,109.04,396.32,110.51,396.32,112.44z M288.79,192.25c0,6.87,0.01,6.85,6.37,8.97c11.34,3.79,8.97,3.89,15.57-5.68
		c2.26-3.28,1.66-5.1-2.28-6.2c-2.69-0.75-3.23-2.15-3.21-4.69c0.11-15.16,0.1-30.33-0.02-45.49c-0.01-1.54-0.58-4.02-1.58-4.44
		c-4.37-1.85-9.01-4.23-13.5-4.11c-2.31,0.06-4.49,4.95-6.72,7.67c-0.16,0.19-0.3,0.39-0.42,0.61c-1.71,2.93-1.2,4.43,1.92,5.61
		c1.25,0.47,2.5,0.92,3.86,1.42C288.79,161.44,288.79,176.85,288.79,192.25z M311.78,116.59c0,0.37,0,0.74,0,1.11
		c-0.01,7.92-5.79,9.14-13.12,8.41c-7.49-0.74-3.53-0.74-3.53-8.5c0-1.23-0.12-2.48,0.08-3.7c0.88-5.2,2.42-6.45,7.62-5.84
		c0.49,0.06,0.98,0.08,1.47,0.13C311.95,108.91,311.78,109.08,311.78,116.59z M198.53,181.35c0,7.14-2.01,13.41-2.01,20.71
		c-3.37,0-6.67,0.09-9.96-0.03c-2.69-0.1-3.95,1-4.06,3.8c-0.16,4.37,1.73,6.79,4.88,6.99c1.75,0.11,3.46,0.03,5.19,0.03
		c1.57,0,3.14,0,5.1,0c0.49,1.9,0.86,3.34,1.02,4.71c-5.62,17-4.66,31.51,1.19,48.35c3.07,5.83,3.45,6.52,9.71,6.52
		c9.24,0,7.75,1.72,5.99-9.32c-4.82-14.87-5.53-30.04-2.48-45.56c0.01-1.38,0.1-2.81,0.19-4.08c1.58-1.6,6.15,1.2,7.59-4.81
		c1.4-5.81-0.62-6.18-7.4-6.91c0-3.59,0.39-7.23,1.04-10.57c0.44-2.28,0-4.88-1.25-6.99c-3.47-5.82-7.41-10.1-11.04-13.9
		c-1.24-1.3-2.72-2.19-4.95-1.77c-6.17,1.17-12.33,1.95-18.53,2.52c-3.27,0.3-3.74,0.91-2.77,2.72c0.08,0.16,0.2,0.31,0.29,0.48
		c4.84,9.25,2.64,10.2,15.11,8.35C193.68,182.25,195.95,181.8,198.53,181.35z M403.05,183.99c12.47,1.85,10.27,0.9,15.11-8.35
		c0.09-0.17,0.21-0.33,0.29-0.48c0.97-1.82,0.5-2.42-2.77-2.72c-6.2-0.57-12.36-1.35-18.53-2.52c-2.22-0.42-3.71,0.47-4.95,1.77
		c-3.63,3.8-7.57,8.08-11.04,13.9c-1.26,2.11-1.7,4.71-1.25,6.99c0.65,3.33,1.04,6.98,1.04,10.57c-6.79,0.72-8.8,1.1-7.4,6.91
		c1.44,6.01,6.01,3.21,7.59,4.81c0.08,1.27,0.18,2.7,0.19,4.08c3.05,15.52,2.34,30.69-2.48,45.56c-1.76,11.04-3.25,9.32,5.99,9.32
		c6.26,0,6.65-0.69,9.71-6.52c5.85-16.84,6.81-31.34,1.19-48.35c0.16-1.37,0.53-2.8,1.02-4.71c1.96,0,3.53,0,5.1,0
		c1.73,0,3.44,0.08,5.19-0.03c3.15-0.21,5.04-2.62,4.88-6.99c-0.1-2.79-1.37-3.9-4.06-3.8c-3.29,0.12-6.59,0.03-9.96,0.03
		c0-7.3-2.01-13.57-2.01-20.71C398.49,183.2,400.76,183.65,403.05,183.99z M97.56,289.46c-0.1-3.18,1.2-4.92,4.49-5.58
		c6.88-1.39,13.73-2.98,20.51-4.79c2.38-0.63,3.79,0.1,5.11,1.76c2.85,3.57,5.43,7.4,8.58,10.68c5.25,5.45,8.02,6.81,7.57,14.39
		c-0.8,13.4-4.95,25.41-5.62,38.83c-0.13,2.65-0.99,4.28-2.65,4.49c-3.72,0.47-13.49,4.96-19.49-0.89
		c-10.17-9.92-8.06-1.67-15.03-11.84c-2.68-3.9-1.99-5.5,2.62-6.04c6.49-0.76,11.79,5.95,18.28,5.15c1.44-0.18,3.94-1.13,3.97-1.82
		c0.13-2.66,2.26-6.53-1.17-11.22c-6.48-8.85-12.51-11.4-19.16-15.63c-6.14-3.91-7.47,1.89-8-11.18
		C97.58,293.66,97.63,291.55,97.56,289.46z M125.56,294.68c-4.2,0.95-7.8,1.77-11.27,2.56c-1.28,5.48-0.59,4.89,4.88,7.55
		c2.6,1.27,4.79,3.39,7.16,5.12c0.34-0.1,0.69-0.2,1.03-0.31C126.78,303.22,126.2,301.71,125.56,294.68z M498.71,292.36
		c-0.53,13.07-1.86,7.27-8,11.18c-6.65,4.23-12.69,6.78-19.16,15.63c-3.43,4.69-1.3,8.57-1.17,11.22c0.03,0.69,2.53,1.64,3.97,1.82
		c6.49,0.8,11.78-5.91,18.28-5.15c4.61,0.54,5.3,2.13,2.62,6.04c-6.97,10.16-4.86,1.91-15.03,11.84c-6,5.85-15.78,1.36-19.49,0.89
		c-1.66-0.21-2.52-1.84-2.65-4.49c-0.67-13.41-4.83-25.43-5.62-38.83c-0.45-7.59,2.32-8.94,7.57-14.39
		c3.15-3.28,5.73-7.11,8.58-10.68c1.32-1.65,2.74-2.39,5.11-1.76c6.78,1.81,13.63,3.39,20.51,4.79c3.3,0.67,4.59,2.4,4.49,5.58
		C498.65,288.15,498.71,290.26,498.71,292.36z M468.92,306.21c0.34,0.1,0.69,0.2,1.03,0.31c2.37-1.73,4.56-3.86,7.16-5.12
		c5.47-2.67,6.16-2.07,4.88-7.55c-3.47-0.79-7.08-1.61-11.27-2.56C470.09,298.31,469.5,299.82,468.92,306.21z M236.35,380.05
		c-3.14-10.06-11-21.56-23.91-22.24c-11.62-0.79-14.7-2.92-26.71-2.73c0,21.9,0,43.79,0,65.69c11.26,1.65,22.58,2.59,33.92,3.52
		c11.94,0.36,23.83-8.4,24.05-20.69c0.09-5.25-7.9-9.24-12.97-12.45C234.2,389.25,237.7,384.38,236.35,380.05z M204.26,375.79
		c2.61,0.37,3.95,0.56,6.44,0.89c2.29,0.3,5.63,2.4,5.21,4.52c-0.42,2.11-2.42,3.58-4.79,3.32c-2.6-0.29-3.98-0.46-6.69-0.81
		C205.17,380.64,205.62,379.22,204.26,375.79z M204.28,404.1c-0.35-3.96-0.5-5.54-1.28-8.91c3.12,0.36,4.77,0.54,7.94,0.81
		c3.32,0.29,7.05,2.25,7.82,4.65c0.78,2.39-2.27,4.53-5.85,4.24C209.49,404.62,207.69,404.45,204.28,404.1z M330.29,392.71
		c6.88-16.34-14.11-36-29.98-35.58c-25.06,0.65-45.12,23.39-39.84,35.58c4.13,9.53,17.26,33.39,41.25,34.12
		C326.59,427.59,324.46,406.55,330.29,392.71z M284.22,392.71c0.24-6.49,9.42-12.79,16.12-12.86c6.71-0.07,6.21,6.39,6.21,12.86
		c0,6.48-4.98,11.42-11.12,11.35C289.29,403.98,283.97,399.2,284.22,392.71z M403.16,382.89c-3.14-10.06-11-21.56-23.91-22.24
		c-11.62-0.79-14.7-2.92-26.71-2.73c0,21.9,0,43.79,0,65.69c11.26,1.65,22.58,2.59,33.92,3.52c11.94,0.36,23.83-8.4,24.05-20.69
		c0.09-5.25-7.9-9.24-12.97-12.45C401.01,392.09,404.51,387.22,403.16,382.89z M371.08,378.63c2.61,0.37,3.95,0.56,6.44,0.89
		c2.29,0.3,5.63,2.4,5.21,4.52c-0.42,2.11-2.42,3.58-4.79,3.32c-2.6-0.29-3.98-0.46-6.69-0.81
		C371.98,383.48,372.44,382.06,371.08,378.63z M371.1,406.94c-0.35-3.96-0.5-5.54-1.28-8.91c3.12,0.36,4.77,0.54,7.94,0.81
		c3.32,0.29,7.05,2.25,7.82,4.65c0.78,2.39-2.27,4.53-5.85,4.24C376.31,407.46,374.51,407.29,371.1,406.94z M268.1,331.79
		c1.29-1.52,1.94-2.31,3.21-3.98c-1.25-0.57-1.88-0.91-3.14-1.64c0-7.94,0-11.91,0-19.84c-3.61-1.74-5.47-2.97-9.12-4.99
		c-3.24,0.23-4.86,0.34-7.98,1.36c-0.55,1.99-0.83,3-1.37,5.03c2.08,0.39,3.15,0.78,5.3,1.67c0.31-1.78,0.47-2.67,0.79-4.45
		c2.82,1.43,4.25,2.33,7.1,3.98c-0.29,0.38-0.44,0.57-0.73,0.95c0,1.16,0,1.74,0,2.9c-4.94,0.15-7.46-0.09-12.18,1.62
		c-0.02,0.15-0.03,0.22-0.05,0.37c-0.22,1.55-0.38,3.18-0.47,4.83c-0.09,1.68-0.06,3.38,0.08,5.04c0.02,0.19,0.02,0.28,0.04,0.47
		c2.7,0.68,4.09,1.35,6.9,2.81c2.26-1.63,3.4-2.33,5.68-3.82c0,1.57,0,2.35,0,3.92C264.54,329.61,265.74,330.43,268.1,331.79z
		 M254.85,321.98c-0.05-0.86-0.06-1.73-0.02-2.58c0.03-0.9,0.12-1.81,0.27-2.71c2.8-0.34,4.22-0.31,7.06-0.38c0,1.3,0,1.96,0,3.26
		c-2.11,1.35-3.17,2-5.27,3.47C256.07,322.59,255.66,322.38,254.85,321.98z M275.64,331.83c0-8.99,0-13.49,0-22.48
		c-1.18,0.12-1.78,0.13-2.98,0.04c0.18-1.37,0.27-2.05,0.45-3.42c1.03,0.05,1.53,0.04,2.54-0.06c0-2.35,0-3.53,0-5.88
		c2.19-3.6,3.25-5.59,5.37-9.66c3.56-0.48,5.29-1.06,8.85-1.54c-0.79,2.37-1.19,3.57-1.98,5.97c-2.7,0.5-4.03,0.88-6.74,1.29
		c0,3.43,0,5.14,0,8.57c2.19-0.72,3.27-1.19,5.44-2.02c-0.17,1.44-0.25,2.16-0.42,3.61c-2,0.77-3,1.19-5.02,1.86
		c0,8.99,0,13.49,0,22.48C278.98,331.3,277.89,331.61,275.64,331.83z M291.75,325.5c0-8.39,0-12.58,0-20.97
		c-1.11,0.29-1.66,0.47-2.75,0.85c0.16-1.5,0.25-2.25,0.41-3.75c1.03-0.35,1.55-0.51,2.6-0.77c0.61-2.54,0.92-3.8,1.54-6.3
		c1.5-0.28,2.25-0.29,3.8-0.33c0,2.38,0,3.58,0,5.96c2.32-0.06,3.55-0.33,6.04-0.99c-0.18,1.49-0.28,2.24-0.46,3.73
		c-2.29,0.59-3.42,0.81-5.57,0.87c0,6.73,0,10.09,0,16.82c2.58,0.57,3.95,0.55,6.72,0.41c-1.44,2.27-2.16,3.38-3.56,5.48
		C296.81,326.34,295.12,325.45,291.75,325.5z M321.29,320.56c1.31-2.01,1.95-2.95,3.2-4.72c-4.21-0.99-6.57-0.53-11.33,0.55
		c-0.13-0.54-0.23-1.09-0.29-1.63c-0.06-0.56-0.11-1.11-0.15-1.62c4.8-4.77,7.19-7.13,11.45-9.86c0-2.99,0-4.48,0-7.47
		c-3.96-1.43-6.16-1.3-10.61-0.89c-2.74,4.01-4.14,6.13-6.89,10.19c-0.01,0.07-0.01,0.11-0.02,0.18c-0.2,1.4-0.33,2.89-0.37,4.4
		c-0.04,1.5-0.03,3.02,0.03,4.52c0.06,1.49,0.17,2.95,0.33,4.34c0.16,1.39,0.36,2.69,0.61,3.87c0.04,0.18,0.06,0.27,0.09,0.46
		C313.03,321.54,316.02,320.3,321.29,320.56z M318.58,300.2c0,1.45,0,2.18,0,3.63c-2.38,2.09-3.62,3.31-6.11,5.78
		c-0.02-1.09,0-2.33,0.08-3.68c0.09-1.67,0.37-3.54,0.86-5.56C315.5,300.18,316.55,300.1,318.58,300.2z M329.52,321.68
		c0-8.5,0-12.74,0-21.24c-1.12-0.8-1.68-1.18-2.82-1.86c1.17-1.56,1.74-2.3,2.88-3.75c2.05,1.5,3.05,2.34,5.08,3.93
		c0,1.63,0,2.45,0,4.08c1.54-1.68,2.31-2.52,3.89-4.35c2.25,1.27,3.4,1.83,5.84,2.41c-1.06,2.11-1.57,3.12-2.58,5.07
		c-1.45-0.65-2.15-1.05-3.53-1.92c-1.46,1.6-2.18,2.34-3.61,3.82c0,6.34,0,9.51,0,15.86C332.61,322.89,331.6,322.42,329.52,321.68z"
		/>
</g>
</svg>
